<?xml version="1.0" encoding="UTF-8" standalone="no"?>
<!-- Created with Inkscape (http://www.inkscape.org/) -->

<svg
   xmlns:dc="http://purl.org/dc/elements/1.1/"
   xmlns:cc="http://creativecommons.org/ns#"
   xmlns:rdf="http://www.w3.org/1999/02/22-rdf-syntax-ns#"
   xmlns:svg="http://www.w3.org/2000/svg"
   xmlns="http://www.w3.org/2000/svg"
   xmlns:sodipodi="http://sodipodi.sourceforge.net/DTD/sodipodi-0.dtd"
   xmlns:inkscape="http://www.inkscape.org/namespaces/inkscape"
   width="540.70081"
   height="326.51971"
   viewBox="0 0 157.36667 95.031386"
   version="1.1"
   id="svg8"
   inkscape:version="0.92.3 (d244b95, 2018-08-02)"
   sodipodi:docname="logo.svg"
   inkscape:export-filename="/home/eric/Desktop/websites/ericegan.org/logo.png"
   inkscape:export-xdpi="96"
   inkscape:export-ydpi="96">
  <defs
     id="defs2" />
  <sodipodi:namedview
     id="base"
     pagecolor="#ffffff"
     bordercolor="#666666"
     borderopacity="1.0"
     inkscape:pageopacity="0.0"
     inkscape:pageshadow="2"
     inkscape:zoom="1.4"
     inkscape:cx="276.79049"
     inkscape:cy="154.61052"
     inkscape:document-units="mm"
     inkscape:current-layer="layer4"
     showgrid="false"
     inkscape:snap-grids="true"
     inkscape:snap-midpoints="false"
     inkscape:snap-bbox="false"
     inkscape:window-width="1366"
     inkscape:window-height="713"
     inkscape:window-x="0"
     inkscape:window-y="27"
     inkscape:window-maximized="1"
     units="px"
     scale-x="1.1"
     inkscape:object-nodes="false"
     inkscape:snap-nodes="false"
     inkscape:snap-global="false" />
  <metadata
     id="metadata5">
    <rdf:RDF>
      <cc:Work
         rdf:about="">
        <dc:format>image/svg+xml</dc:format>
        <dc:type
           rdf:resource="http://purl.org/dc/dcmitype/StillImage" />
        <dc:title />
      </cc:Work>
    </rdf:RDF>
  </metadata>
  <g
     inkscape:label="Layer 1"
     inkscape:groupmode="layer"
     id="layer1"
     style="display:inline"
     transform="translate(0,-220.05471)">
    <path
       style="fill:#550000;stroke:#000000;stroke-width:0.26458332;stroke-opacity:1"
       id="path3842"
       d="m 34.309226,229.11323 c 4.661995,-1.06515 9.405513,-1.55185 14.170162,-1.86499 6.233509,-0.23817 12.480211,-0.5285 18.703535,0.002 3.35449,0.46125 6.823637,0.4898 10.05557,1.58384 2.541484,0.94601 1.285806,2.78093 0.286708,4.41302 -0.370859,0.80431 -2.719963,3.68614 -2.412062,4.53067 0.0509,0.1397 0.269806,0.12508 0.404704,0.18762 7.698057,1.64779 15.691983,1.43247 23.524026,1.48236 10.582791,-0.2618 21.213201,-0.93814 31.640931,-2.85682 1.72668,-0.31771 3.43637,-0.72164 5.15456,-1.08246 5.34041,-1.29574 10.40724,-3.44861 15.52081,-5.41635 0,0 -9.36196,7.19704 -9.36196,7.19704 v 0 c -4.99335,1.84982 -9.96147,3.8354 -15.19294,4.92917 -12.09408,2.2482 -24.36451,3.33741 -36.663261,3.57686 -5.637057,0.052 -11.274841,0.16145 -16.909847,-0.0625 -1.611527,-0.064 -4.869611,-0.19146 -6.614601,-0.59351 -0.64199,-0.14793 -1.235211,-0.45868 -1.852816,-0.68803 -0.321204,-0.37642 -0.760636,-0.67797 -0.963621,-1.12925 -0.591918,-1.31595 1.635901,-4.02838 2.246863,-5.11286 0.07305,-0.12343 0.834471,-1.4273 0.991395,-1.63832 0.09532,-0.1281 0.20132,-0.25641 0.337368,-0.33995 0.06711,-0.0412 0.197981,0.057 0.235852,-0.0121 0.146757,-0.26744 -1.642038,-0.31929 -0.805563,-0.43434 -3.073114,-0.96608 -6.314951,-1.1622 -9.486552,-1.62882 -6.145836,-0.52771 -12.323541,-0.30583 -18.473981,0.0716 -4.940305,0.42958 -9.881713,1.01329 -14.634609,2.5013 0,0 10.099329,-7.6156 10.099329,-7.6156 z"
       inkscape:connector-curvature="0" />
    <path
       inkscape:connector-curvature="0"
       d="m 27.403654,281.03952 c 4.661995,-1.06515 9.405513,-1.55186 14.170162,-1.86498 6.233508,-0.23818 12.480211,-0.52852 18.703534,0.002 3.354491,0.46126 6.823635,0.4898 10.05557,1.58385 2.541484,0.946 1.285806,2.78093 0.286709,4.41302 -0.370859,0.80429 -2.719962,3.68612 -2.412061,4.53067 0.0509,0.13969 0.269807,0.12507 0.404705,0.18761 7.698055,1.64779 15.691984,1.43247 23.524028,1.48235 10.582789,-0.2618 21.213199,-0.93812 31.640919,-2.85681 1.72668,-0.31771 3.43638,-0.72164 5.15457,-1.08245 5.34041,-1.29575 10.40723,-3.44862 15.52081,-5.41636 0,0 -9.36196,7.19704 -9.36196,7.19704 v 0 c -4.99336,1.84981 -9.96148,3.83541 -15.19294,4.92918 -12.09409,2.24819 -24.364504,3.33741 -36.66326,3.57685 -5.637057,0.052 -11.274844,0.16145 -16.909857,-0.0625 -1.611522,-0.064 -4.869608,-0.19136 -6.614594,-0.5935 -0.64199,-0.14794 -1.235211,-0.45869 -1.852817,-0.68803 -0.321203,-0.37641 -0.760636,-0.67796 -0.963621,-1.12924 -0.591917,-1.31596 1.635902,-4.02838 2.246864,-5.11287 0.07305,-0.12344 0.834471,-1.4273 0.991395,-1.63831 0.09532,-0.1281 0.20132,-0.25641 0.337367,-0.33996 0.06711,-0.0412 0.197981,0.057 0.235853,-0.012 0.146757,-0.26745 -1.642038,-0.31931 -0.805564,-0.43435 -3.073114,-0.96608 -6.314951,-1.16219 -9.486552,-1.62881 -6.145835,-0.52772 -12.32354,-0.30583 -18.473981,0.0716 -4.940305,0.42959 -9.881702,1.01328 -14.634609,2.5013 0,0 10.099329,-7.61561 10.099329,-7.61561 z"
       id="path3844"
       style="fill:#550000;stroke-width:0.26458332" />
    <path
       inkscape:connector-curvature="0"
       d="m -126.59637,227.14492 c 9.43391,0.0589 18.94478,-0.11287 28.439183,-0.39902 6.546471,-0.23233 3.335951,-0.11617 9.631561,-0.34804 0,0 -11.896424,3.19992 -11.896424,3.19992 v 0 c -6.1729,0.19485 -3.02609,0.0993 -9.44036,0.28546 -9.81983,0.24875 -19.63095,0.41361 -29.44685,0.62157 0,0 12.71283,-3.35961 12.71283,-3.35961 z"
       id="path3874"
       style="fill:#550000;stroke-width:0.19060841"
       inkscape:transform-center-x="-0.66925589"
       inkscape:transform-center-y="0.61558885" />
    <path
       inkscape:transform-center-y="0.65204116"
       inkscape:transform-center-x="-0.56359378"
       style="fill:#550000;stroke-width:0.19070689"
       id="path3878"
       d="m 39.211201,257.21955 c 8.459604,0.33419 17.002013,0.41372 25.536459,0.36556 5.886669,-0.0724 2.999588,-0.0344 8.661211,-0.11344 0,0 -10.863304,3.22585 -10.863304,3.22585 v 0 c -5.549341,0.0412 -2.720657,0.0246 -8.485953,0.0492 -8.824169,-0.003 -17.635551,-0.0982 -26.453758,-0.14606 0,0 11.605245,-3.38046 11.605245,-3.38046 z"
       inkscape:connector-curvature="0" />
    <path
       inkscape:transform-center-y="-0.33948757"
       inkscape:transform-center-x="-0.40504349"
       style="opacity:1;fill:#550000;stroke-width:0.1162185"
       id="path837"
       d="m -116.46186,211.50348 c 0.42413,-5.17422 0.69594,-10.40105 0.89009,-15.62399 0.11015,-3.60285 0.0576,-1.83584 0.15787,-5.30101 0,0 1.67236,6.67238 1.67236,6.67238 v 0 c -0.12022,3.39617 -0.0563,1.66506 -0.19228,5.19326 -0.2325,5.39985 -0.52112,10.79116 -0.78096,16.18701 0,0 -1.74671,-7.12758 -1.74671,-7.12758 z"
       inkscape:connector-curvature="0" />
    <path
       style="opacity:1;fill:#550000;fill-opacity:1;stroke:#000000;stroke-width:0.2270781;stroke-opacity:1"
       id="path3753"
       d="m 38.263288,231.24446 c 1.130797,1.1057 1.900986,2.87893 2.220438,5.26081 0.116033,0.86519 0.158301,1.78608 0.237438,2.67911 0.251287,6.61332 -0.450693,13.70709 -1.850577,20.53981 -0.287448,1.40326 -0.651117,2.77978 -0.976622,4.16969 -2.439257,8.82512 -6.650141,15.55458 -10.732567,22.06158 -0.698173,1.05063 -1.396315,2.10125 -2.094469,3.15189 0,0 -2.284138,2.2346 -2.284138,2.2346 v 0 c 0.697548,-1.04479 1.395105,-2.08955 2.092663,-3.13434 3.355402,-5.31719 7.02584,-10.98548 9.48309,-17.77972 0.475207,-1.31393 0.853129,-2.7089 1.279697,-4.06333 0.331642,-1.38012 0.702886,-2.74555 0.995033,-4.14031 1.4093,-6.7282 2.117723,-13.7484 1.786385,-20.22908 -0.385585,-3.68771 -0.663091,-5.89544 -2.534046,-7.42496 0,0 2.377685,-3.32575 2.377685,-3.32575 z"
       inkscape:connector-curvature="0" />
    <path
       inkscape:connector-curvature="0"
       d="m 88.623968,242.25156 c 1.403893,1.0568 2.415395,2.79553 2.924194,5.16109 0.184817,0.85928 0.284979,1.77728 0.427448,2.66591 0.657197,6.59479 0.207183,13.70953 -1.085807,20.59286 -0.265556,1.41367 -0.623141,2.80379 -0.934642,4.20573 -2.420569,8.91706 -7.06033,15.81542 -11.559478,22.48624 -0.772807,1.07871 -1.545593,2.15743 -2.31837,3.23615 0,0 -2.593529,2.32795 -2.593529,2.32795 v 0 c 0.772387,-1.07286 1.544775,-2.1457 2.317183,-3.21855 3.69959,-5.45186 7.754565,-11.26764 10.30662,-18.15701 0.49354,-1.33233 0.867067,-2.7415 1.30061,-4.11223 0.319336,-1.3924 0.686523,-2.7718 0.958116,-4.17716 1.310167,-6.77936 1.771516,-13.82089 1.026369,-20.27981 -0.658201,-3.66706 -1.107707,-5.86046 -3.414245,-7.30947 0,0 2.645541,-3.4217 2.645541,-3.4217 z"
       id="path3755"
       style="opacity:1;fill:#550000;fill-opacity:1;stroke:#000000;stroke-width:0.2476441;stroke-opacity:1" />
    <path
       inkscape:connector-curvature="0"
       d="m 90.762787,268.50905 c 8.459609,0.33419 17.001993,0.41372 25.536443,0.36555 5.88667,-0.0724 2.9996,-0.0344 8.66121,-0.11344 0,0 -10.86331,3.22586 -10.86331,3.22586 v 0 c -5.54933,0.0412 -2.72065,0.0246 -8.48595,0.0492 -8.824158,-0.003 -17.635521,-0.0982 -26.453734,-0.14606 0,0 11.605244,-3.38046 11.605244,-3.38046 z"
       id="path3757"
       style="fill:#550000;stroke-width:0.19070689"
       inkscape:transform-center-x="-0.56359278"
       inkscape:transform-center-y="0.65204621" />
  </g>
  <g
     inkscape:groupmode="layer"
     id="layer4"
     inkscape:label="Layer 4"
     style="display:inline"
     transform="translate(0,-220.05471)">
    <text
       xml:space="preserve"
       style="font-style:normal;font-variant:normal;font-weight:normal;font-stretch:normal;font-size:6.27330685px;line-height:1.25;font-family:'Samyak Malayalam';-inkscape-font-specification:'Samyak Malayalam';letter-spacing:0px;word-spacing:0px;fill:#550000;fill-opacity:1;stroke:none;stroke-width:0.15683267"
       x="40.746101"
       y="285.25348"
       id="text3882"
       transform="matrix(1.0532313,0.01058215,-0.00953856,0.94936322,0,0)"><tspan
         sodipodi:role="line"
         id="tspan3880"
         x="40.746101"
         y="285.25348"
         style="font-style:normal;font-variant:normal;font-weight:normal;font-stretch:normal;font-family:'Samyak Malayalam';-inkscape-font-specification:'Samyak Malayalam';fill:#550000;stroke-width:0.15683267"><tspan
           style="font-style:normal;font-variant:normal;font-weight:normal;font-stretch:normal;font-size:15.05593586px;line-height:0.25;font-family:Karumbi;-inkscape-font-specification:Karumbi;fill:#550000;stroke-width:0.15683267"
           id="tspan4214">Eric </tspan></tspan></text>
    <text
       xml:space="preserve"
       style="font-style:normal;font-weight:normal;font-size:11.24514484px;line-height:1.25;font-family:sans-serif;letter-spacing:0px;word-spacing:0px;fill:#550000;fill-opacity:1;stroke:none;stroke-width:0.28112862"
       x="-72.417847"
       y="193.03645"
       id="text4446"
       transform="scale(1.1327996,0.88276868)"><tspan
         sodipodi:role="line"
         id="tspan4444"
         x="-72.417847"
         y="193.03645"
         style="fill:#550000;stroke-width:0.28112862"><tspan
   style="font-style:normal;font-variant:normal;font-weight:normal;font-stretch:normal;font-family:Karumbi;-inkscape-font-specification:Karumbi;fill:#550000;stroke-width:0.28112862"
   id="tspan4448">Design That Flows</tspan>.</tspan></text>
    <text
       id="text4454"
       y="276.42493"
       x="96.551155"
       style="font-style:normal;font-variant:normal;font-weight:normal;font-stretch:normal;font-size:6.12864971px;line-height:1.25;font-family:'Samyak Malayalam';-inkscape-font-specification:'Samyak Malayalam';letter-spacing:0px;word-spacing:0px;fill:#550000;fill-opacity:1;stroke:none;stroke-width:0.15321624"
       xml:space="preserve"
       transform="matrix(0.9818853,0.00986532,-0.01023164,1.0183461,0,0)"><tspan
         style="font-style:normal;font-variant:normal;font-weight:normal;font-stretch:normal;font-family:'Samyak Malayalam';-inkscape-font-specification:'Samyak Malayalam';fill:#550000;stroke-width:0.15321624"
         y="276.42493"
         x="96.551155"
         id="tspan4452"
         sodipodi:role="line"><tspan
           id="tspan4450"
           style="font-style:normal;font-variant:normal;font-weight:normal;font-stretch:normal;font-size:14.70875931px;line-height:0.25;font-family:Karumbi;-inkscape-font-specification:Karumbi;fill:#550000;stroke-width:0.15321624">Egan. </tspan></tspan></text>
  </g>
  <g
     inkscape:groupmode="layer"
     id="layer3"
     inkscape:label="Layer 3"
     style="display:inline"
     transform="translate(0,-220.05471)" />
  <g
     inkscape:groupmode="layer"
     id="layer2"
     inkscape:label="Layer 2"
     transform="translate(0,-220.05471)">
    <g
       inkscape:groupmode="layer"
       id="layer5"
       inkscape:label="monica experiment"
       transform="translate(0,220.05471)" />
  </g>
</svg>
